Simulation
nRows=48
nColumns=15
endheader
time  TH_x TH_y TH_z SC_y  SC_z  SC_x  AC_y  AC_z  AC_x  GH_y  GH_z  GH_yy  EL_x  PS_y
2.8725  0.000000  0.000000  0.000000  -33.01567195409933  -3.65331373091038  4.04176645430591  48.257432915780505  -12.502776710899674  -1.1452997051289153  -10.471850757272298  25.19941797196228  10.352032806961265  13.985188100611204  120.000000
2.92995  0.000000  0.000000  0.000000  -33.59280420224966  -2.2902974923269275  2.948381480875052  47.09457518361232  -9.448123982099885  -1.6808516287085657  -3.833911893778238  20.22293928984427  8.46421423755032  14.338661065121268  120.000000
2.9874  0.000000  0.000000  0.000000  -34.47659999631438  -1.0907587365449882  1.5944468173253992  46.008382859240754  -6.327930282990453  -1.8087085618687573  5.172290846735637  15.939477907333428  3.9118072464216715  14.774153918651539  120.000000
3.0448500000000003  0.000000  0.000000  0.000000  -35.619482135537574  -0.11412691691995966  0.2934871263351441  45.029126999394855  -3.447608535890332  -1.716650580310471  17.23551934405202  12.607845673295376  -4.139479345169821  15.255485450102002  120.000000
3.1023  0.000000  0.000000  0.000000  -36.935079426774344  0.6123132759492019  -0.7662327512434881  44.19629816380457  -0.9578285221410644  -1.5592219147196336  32.37787974121748  10.384339236187436  -15.799968207263062  15.740380440903264  120.000000
3.15975  0.000000  0.000000  0.000000  -38.320205534420374  1.128319760499596  -1.56126552679592  43.52648944878525  1.1284328239679025  -1.3983746082921416  48.90892277375794  9.235061475423754  -29.40150852746156  16.196446932439848  120.000000
3.2172  0.000000  0.000000  0.000000  -39.67989596545982  1.5057889114150032  -2.1373697390798516  43.008849282185786  2.8471021823944347  -1.253173235037099  63.95885584356626  8.902088633183759  -42.044306497336464  16.611589782992038  120.000000
3.2746500000000003  0.000000  0.000000  0.000000  -40.934743054075554  1.7912225979466119  -2.543503137298353  42.60416250037003  4.246354122275796  -1.135744888796226  75.65857648940005  9.022073537615682  -51.80352643464193  16.98715768666668  120.000000
3.3321  0.000000  0.000000  0.000000  -42.011432669649395  2.014291553145235  -2.818624749608522  42.27267621094797  5.366775089017186  -1.0557793199399388  83.87839916561087  9.299220152857785  -58.48004403172448  17.335362817616417  120.000000
3.38955  0.000000  0.000000  0.000000  -42.84181857430082  2.196326917363036  -2.995990046780132  41.99928858035073  6.232065681649572  -1.024663213759642  89.28149424593934  9.574154680850969  -62.677630944653245  17.671664170591093  120.000000
3.447  0.000000  0.000000  0.000000  -43.378499337886026  2.346822034787863  -3.104312122595264  41.78738327753652  6.845284902886622  -1.0365074973763908  92.54135479837323  9.79144808783711  -65.03775276220269  18.00878345104824  120.000000
3.5044500000000003  0.000000  0.000000  0.000000  -43.60484708636896  2.461960653825406  -3.1661598949599847  41.644380098006934  7.195755264867951  -1.0584432774721437  94.1134699907036  9.93934968977026  -66.00852705922917  18.354993797289772  120.000000
3.5619  0.000000  0.000000  0.000000  -43.527708759312326  2.5349775565099346  -3.2011501627961874  41.58025411455105  7.276818002177554  -1.0451455292844514  94.26800856612296  10.012069501726552  -65.86718914308143  18.714416101751894  120.000000
3.61935  0.000000  0.000000  0.000000  -43.17378881521288  2.5614190297633215  -3.2268246735370125  41.61367015790429  7.097402539865368  -0.9538444188161243  93.11119713889182  9.996348022134908  -64.73526455983595  19.085364506311137  120.000000
3.6768  0.000000  0.000000  0.000000  -42.577913227843304  2.544334649094268  -3.261087349441327  41.784861171115516  6.683416653318065  -0.7554130887629774  90.59063779350838  9.882674168337548  -62.57348787726527  19.4629268525338  120.000000
3.7342500000000003  0.000000  0.000000  0.000000  -41.78296486263011  2.4918524161776716  -3.3201836441328587  42.13758187478198  6.069233818148808  -0.42808448975440383  86.52119512945391  9.677049786626213  -59.19278154705454  19.84569921778195  120.000000
3.7917  0.000000  0.000000  0.000000  -40.84379662837958  2.401160239842693  -3.413596947223006  42.68974381619761  5.290631018096604  0.052850613677128455  80.57442189981607  9.40324824032106  -54.23888321103786  20.23242060797541  120.000000
3.84915  0.000000  0.000000  0.000000  -39.82458013269984  2.259680430292581  -3.5483284918740714  43.4404597470352  4.383236826560682  0.7106813565071609  72.25586875875125  9.126327895279928  -47.17008999371329  20.62194084654813  120.000000
3.9066  0.000000  0.000000  0.000000  -38.78419803278053  2.0560013655437634  -3.7263548320223157  44.398125492393845  3.3708860649077867  1.550088103169343  61.07616222695684  8.993905001957234  -37.429343521182325  21.015897500047995  120.000000
3.9640500000000003  0.000000  0.000000  0.000000  -37.77896712697362  1.7534554454979976  -3.9526402584422886  45.566224487768714  2.2672737334375905  2.573259852498835  47.09030051821582  9.252221918180465  -24.99150503183348  21.410442174804313  120.000000
4.0215  0.000000  0.000000  0.000000  -36.85519539989603  1.3102315966053242  -4.240366509799589  46.92503555158096  1.0634424708988475  3.8074809959234375  31.691192704785443  10.19988860075821  -11.158237700265703  21.80280012817499  120.000000
4.07895  0.000000  0.000000  0.000000  -36.035137539326655  0.6909966376031922  -4.615135955205346  48.461358062225784  -0.25893650190884865  5.269370916070958  17.264382631183604  12.077065783052756  1.7651634421682316  22.18343923299169  120.000000
4.1364  0.000000  0.000000  0.000000  -35.33666874244417  -0.12730300749095735  -5.109342862261085  50.150764733837036  -1.7029804505414396  6.951673559915763  5.569561085594304  14.946905870598904  12.078054136335727  22.53074362381421  120.000000
4.19385  0.000000  0.000000  0.000000  -34.77289655480695  -1.1272234603730877  -5.714318950412024  51.93144232850197  -3.279774567106904  8.822759208487236  -3.0760968904334693  18.676409171935553  19.51228694052241  22.8263738016861  120.000000
4.2513000000000005  0.000000  0.000000  0.000000  -34.38378431173636  -2.265752334357828  -6.3852351237490055  53.71913768895799  -4.987914610366748  10.8342682101681  -9.13439614529821  23.010524267452233  24.54992603671509  23.049654804099085  120.000000
4.30875  0.000000  0.000000  0.000000  -34.19414801870186  -3.4724199667337365  -7.1012564764282295  55.43861254432411  -6.733800423783092  12.946464089009007  -13.162433026565667  27.621885889102167  27.748702098160564  23.18530790580354  120.000000
4.3662  0.000000  0.000000  0.000000  -34.16222064463868  -4.624757449584095  -7.830334531186172  57.032059122804576  -8.343118780407567  15.100053106781353  -15.64282232749373  32.16970094568547  29.558375500528868  23.242627325824373  120.000000
4.42365  0.000000  0.000000  0.000000  -34.24132859342255  -5.579003529865705  -8.493833537888877  58.48502739391034  -9.633514582931282  17.184394137209406  -16.93122346040954  36.393698729887724  30.256136704401765  23.255681485876508  120.000000
4.4811  0.000000  0.000000  0.000000  -34.427473149761894  -6.228189993332466  -8.99794579552544  59.83840241360666  -10.449684582481257  19.076974997477436  -17.264039929326213  40.153089677225374  29.98241059830696  23.267233505149676  120.000000
4.53855  0.000000  0.000000  0.000000  -34.77408915910541  -6.468135181674243  -9.24591005506965  61.17157238285816  -10.709392246735  20.712373116637163  -16.844801139082282  43.396301305209974  28.84320409060694  23.32801774736112  120.000000
4.596  0.000000  0.000000  0.000000  -35.34828023125905  -6.195846191441455  -9.140144063147066  62.5569032944515  -10.42562330053978  22.087239988581423  -15.885731096360805  46.12767486427993  26.96736060880772  23.47346975551442  120.000000
4.65345  0.000000  0.000000  0.000000  -36.22915938408579  -5.33125952152253  -8.57867829879933  64.04067642295965  -9.71968694141247  23.25404279005784  -14.541324799929997  48.38465652257182  24.476771896938605  23.713843056534547  120.000000
4.7109000000000005  0.000000  0.000000  0.000000  -37.41103458501345  -3.8238223282590202  -7.4369452535516025  65.6386442650177  -8.807529340075071  24.301890500719733  -12.957536844397243  50.22729948277607  21.503220269052235  24.01803742829811  120.000000
4.76835  0.000000  0.000000  0.000000  -38.71922463640398  -1.7140248247145662  -5.593338894233844  67.28473056236248  -7.887839417567466  25.2678746429347  -11.383752192415471  51.69657658173277  18.241307704623534  24.288247257550882  120.000000
4.8258  0.000000  0.000000  0.000000  -39.942278576251546  0.8451710281006455  -2.997805741972125  68.84993407063067  -7.057317461736741  26.089242068424568  -10.077346002903429  52.787773577625806  14.895850831049167  24.429181589977354  120.000000
4.88325  0.000000  0.000000  0.000000  -40.98784446773183  3.6500382202787094  0.3236428907521143  70.23008637108741  -6.369550311329059  26.69594997117188  -9.13358547716782  53.51694916972781  11.577413795543986  24.390983117271563  120.000000
4.9407  0.000000  0.000000  0.000000  -41.92732171741198  6.519132702212351  4.293104853430775  71.37087142800881  -5.870482160925431  27.07352516291053  -8.46221413998727  53.95173327941411  8.296766571125344  24.168093128577844  120.000000
4.99815  0.000000  0.000000  0.000000  -42.90829193753282  9.312818388859487  8.793559358031477  72.2297113652905  -5.581424895209046  27.22646253645094  -7.8959779449717615  54.18488273413237  5.033645721356921  23.78363416070526  120.000000
5.0556  0.000000  0.000000  0.000000  -44.04101209211127  11.927357858730463  13.687627950125067  72.76394165059901  -5.510744547792866  27.168337739842666  -7.316911593612995  54.311348927641454  1.7972516043940923  23.26364788403571  120.000000
5.11305  0.000000  0.000000  0.000000  -45.341515031141014  14.28189627463937  18.81663815082988  72.94377179723212  -5.6564698067833  26.916422568281845  -6.709568889855004  54.4108777286517  -1.3508116804453552  22.632640345671735  120.000000
5.1705000000000005  0.000000  0.000000  0.000000  -46.74424936369971  16.310834368273856  23.999416138701203  72.77594972937983  -5.997805949079337  26.49432044497089  -6.124051436111827  54.5390147403287  -4.318015952133671  21.92511913774043  120.000000
5.22795  0.000000  0.000000  0.000000  -48.14558253545635  17.972044415835214  29.03976709660082  72.32138150946578  -6.488590140828739  25.939267783890298  -5.608539363993534  54.728280061456665  -7.021844112019847  21.194526882705503  120.000000
5.2854  0.000000  0.000000  0.000000  -49.44955145056654  19.250945595554875  33.735298920144196  71.67771988292401  -7.065200288244639  25.302434208363287  -5.181501322597913  54.993195534544974  -9.412298137911652  20.496923361459952  120.000000
5.34285  0.000000  0.000000  0.000000  -50.58629971381699  20.161197193773837  37.88477390647689  70.95432658869663  -7.662806608133628  24.638999925800448  -4.834531753584484  55.33086841832656  -11.474412320599846  19.875565373982365  120.000000
5.4003  0.000000  0.000000  0.000000  -51.50289616595148  20.742586652879012  41.296499677771436  70.2568317899185  -8.22651795991791  23.99896070567619  -4.544281023106382  55.72330016273835  -13.219354562176534  19.35261512862924  120.000000
5.45775  0.000000  0.000000  0.000000  -52.153396108319505  21.05073029405549  43.79901713769472  69.67544757769055  -8.71654471125333  23.422568787473068  -4.290977223441291  56.14242690099729  -14.668686053737076  18.93071053273903  120.000000
5.5152  0.000000  0.000000  0.000000  -52.4953158692491  21.13959605176305  45.249855904462564  69.27946375449879  -9.106913327470165  22.93919918364582  -4.0698442035289695  56.557721554893256  -15.839915878711286  18.604127975809025  120.000000
5.57265  0.000000  0.000000  0.000000  -52.48987379270139  21.04220795472232  45.54325384635215  69.11224647606527  -9.38262505050921  22.569295571454223  -3.893512739044939  56.94135856551449  -16.735176648246927  18.37165987402965  120.000000
